<svg width="40" height="41" viewBox="0 0 40 41" fill="none" xmlns="http://www.w3.org/2000/svg">
<path d="M40 0.859863H0V40.8599H40V0.859863Z" fill="url(#paint0_linear_4619_239)"/>
<path fill-rule="evenodd" clip-rule="evenodd" d="M19.1475 14.4732C21.3937 14.4732 22.6239 14.9765 22.8482 15.2288C22.6239 15.4812 21.3937 15.9844 19.1475 15.9844C16.9014 15.9844 15.6711 15.4812 15.4468 15.2288C15.6711 14.9765 16.9014 14.4732 19.1475 14.4732ZM18.8919 18.501C18.8096 18.4587 18.7515 18.3746 18.7515 18.2749C18.7515 18.1348 18.8646 18.0205 19.0031 18.0205C19.0433 18.0205 19.08 18.0321 19.1143 18.0497L18.8919 18.501ZM21.7837 22.6553C21.7465 22.6855 21.6611 22.744 21.4855 22.8145C21.3291 22.8769 21.144 22.9334 20.9341 22.9827C20.3763 23.1137 19.6904 23.1857 19.0026 23.1857C17.4984 23.1857 16.4503 22.8608 16.2245 22.6593L15.558 16.4353C16.5798 16.8534 18.085 16.9919 19.1475 16.9919C20.1922 16.9919 21.6646 16.8574 22.686 16.4554L22.2874 19.1927C21.5366 18.9096 20.5996 18.4985 19.7118 18.0663C19.6215 17.753 19.3401 17.5223 19.0031 17.5223C18.5942 17.5223 18.2617 17.8603 18.2617 18.2749C18.2617 18.6905 18.5942 19.028 19.0031 19.028C19.0999 19.028 19.1922 19.0078 19.2766 18.9735C20.5172 19.5861 21.4418 19.979 22.1376 20.2213L21.7837 22.6553ZM14.4359 15.2832L15.2394 22.7848C15.2959 24.1771 18.8498 24.1932 19.0026 24.1932C19.7634 24.1932 20.5287 24.1116 21.1574 23.9645C21.415 23.9041 21.6482 23.8325 21.8502 23.7514C22.4368 23.5157 22.7445 23.1943 22.7659 22.7969L23.1003 20.4978C23.3281 20.5447 23.5142 20.5653 23.6626 20.5653C24.1296 20.5653 24.2527 20.3739 24.3376 20.2419C24.4269 20.1029 24.4527 19.9321 24.411 19.7604C24.3157 19.3654 23.7584 18.8456 23.3862 18.5368L23.8567 15.3024L23.8522 15.3019C23.8542 15.2772 23.8621 15.254 23.8621 15.2288C23.8621 13.837 20.8984 13.4658 19.1475 13.4658C17.3967 13.4658 14.4329 13.837 14.4329 15.2288C14.4329 15.2475 14.4394 15.2641 14.4404 15.2827L14.4359 15.2832ZM18.9177 10.8897C23.2433 10.8897 26.7623 14.4616 26.7623 18.8521C26.7623 23.2427 23.2433 26.8146 18.9177 26.8146C14.5917 26.8146 11.0727 23.2427 11.0727 18.8521C11.0727 14.4616 14.5917 10.8897 18.9177 10.8897ZM6.49255 21.7773V22.7848H10.959V22.7253C12.3868 25.7346 15.4131 27.8221 18.9177 27.8221C23.7902 27.8221 27.7549 23.7983 27.7549 18.8521C27.7549 13.906 23.7902 9.88224 18.9177 9.88224C15.1267 9.88224 11.8955 12.3223 10.6429 15.7326H6.49255V16.74H10.3382C10.1833 17.3883 10.0925 18.0608 10.0851 18.7549H5.5V19.7624H10.1258C10.1957 20.4621 10.3531 21.134 10.5724 21.7773H6.49255ZM33.54 33.8774C32.9395 34.4879 31.8983 34.4914 31.2983 33.8829L25.9663 28.4704C26.8244 27.821 27.5901 27.0549 28.2467 26.198L33.5459 31.6025C33.8442 31.9058 34.0084 32.3098 34.0074 32.7395C34.0069 33.1702 33.8412 33.5736 33.54 33.8774ZM34.2486 30.8913L28.8308 25.3649C30.0318 23.488 30.7325 21.2524 30.7325 18.8521C30.7325 12.2392 25.4323 6.85986 18.9177 6.85986C14.2364 6.85986 9.99128 9.66967 8.10196 14.0184L9.01014 14.4244C10.7406 10.4414 14.6294 7.86732 18.9177 7.86732C24.8854 7.86732 29.74 12.7948 29.74 18.8521C29.74 24.909 24.8854 29.837 18.9177 29.837C14.9312 29.837 11.2786 27.6221 9.38433 24.0567L8.51089 24.5352C10.5779 28.427 14.5659 30.8444 18.9177 30.8444C21.1956 30.8444 23.3242 30.1851 25.1301 29.0466L30.5971 34.5957C31.0824 35.0884 31.7281 35.3599 32.4139 35.3599C33.1037 35.3599 33.7534 35.0863 34.2407 34.5912C34.729 34.0985 34.999 33.4417 35 32.741C35.0015 32.0413 34.734 31.3844 34.2486 30.8913Z" fill="white"/>
<defs>
<linearGradient id="paint0_linear_4619_239" x1="0" y1="4000.86" x2="4000" y2="0.859863" gradientUnits="userSpaceOnUse">
<stop stop-color="#4D27A8"/>
<stop offset="1" stop-color="#A166FF"/>
</linearGradient>
</defs>
</svg>
