<svg width="24" height="24" viewBox="0 0 24 24" fill="none" xmlns="http://www.w3.org/2000/svg">
<g clip-path="url(#clip0_4674_3439)">
<path d="M24 0H0V24H24V0Z" fill="url(#paint0_linear_4674_3439)"/>
<path d="M7.2 8.71997H4.32C4.23513 8.71997 4.15374 8.75368 4.09373 8.8137C4.03371 8.87371 4 8.9551 4 9.03997V19.28C4 19.3648 4.03371 19.4462 4.09373 19.5062C4.15374 19.5663 4.23513 19.6 4.32 19.6H7.2C7.28487 19.6 7.36626 19.5663 7.42627 19.5062C7.48629 19.4462 7.52 19.3648 7.52 19.28V9.03997C7.52 8.9551 7.48629 8.87371 7.42627 8.8137C7.36626 8.75368 7.28487 8.71997 7.2 8.71997ZM6.88 18.96H4.64V9.35997H6.88V18.96Z" fill="white"/>
<path d="M11.68 17.4944V19.28C11.68 19.3649 11.6463 19.4463 11.5863 19.5063C11.5263 19.5663 11.4449 19.6 11.36 19.6H8.48003C8.39516 19.6 8.31377 19.5663 8.25376 19.5063C8.19375 19.4463 8.16003 19.3649 8.16003 19.28V13.76C8.26408 14.3548 8.48135 14.924 8.80003 15.4368V18.9568H11.04V17.28C11.2475 17.368 11.4615 17.4397 11.68 17.4944Z" fill="white"/>
<path d="M11.68 7.12005V8.25285C11.4611 8.31173 11.2471 8.3877 11.04 8.48005V7.44005H8.80003V10.32C8.48135 10.8329 8.26408 11.4021 8.16003 11.9968V7.12005C8.16003 7.03518 8.19375 6.95379 8.25376 6.89377C8.31377 6.83376 8.39516 6.80005 8.48003 6.80005H11.36C11.4449 6.80005 11.5263 6.83376 11.5863 6.89377C11.6463 6.95379 11.68 7.03518 11.68 7.12005Z" fill="white"/>
<path d="M15.1999 17.7504V18.96H12.9599V17.68C12.7459 17.6807 12.5321 17.6668 12.3199 17.6384V19.28C12.3199 19.3649 12.3537 19.4463 12.4137 19.5063C12.4737 19.5663 12.5551 19.6 12.6399 19.6H15.5199C15.6048 19.6 15.6862 19.5663 15.7462 19.5063C15.8062 19.4463 15.8399 19.3649 15.8399 19.28V18.3904L15.1999 17.7504ZM15.5199 4.23999H12.6399C12.5551 4.23999 12.4737 4.2737 12.4137 4.33372C12.3537 4.39373 12.3199 4.47512 12.3199 4.55999V8.12159C12.5321 8.0929 12.7459 8.079 12.9599 8.07999V4.87999H15.1999V8.63999C15.4242 8.75872 15.6382 8.89572 15.8399 9.04959V4.56959C15.8412 4.52677 15.8339 4.48412 15.8184 4.44418C15.8029 4.40424 15.7795 4.36782 15.7497 4.33708C15.7198 4.30635 15.6841 4.28191 15.6447 4.26523C15.6052 4.24856 15.5628 4.23997 15.5199 4.23999Z" fill="white"/>
<path d="M19.68 5.84009H16.8C16.7151 5.84009 16.6337 5.8738 16.5737 5.93381C16.5137 5.99383 16.48 6.07522 16.48 6.16009V9.62889C16.7267 9.89526 16.9415 10.1895 17.12 10.5057V6.48009H19.36V16.3201L20 16.9601V6.16009C20 6.07522 19.9663 5.99383 19.9063 5.93381C19.8462 5.8738 19.7649 5.84009 19.68 5.84009Z" fill="white"/>
<path d="M19.6128 17.4879L16.7328 14.6079C17.1441 13.7119 17.2238 12.699 16.9578 11.7497C16.6917 10.8004 16.0971 9.97646 15.2801 9.42476C14.463 8.87306 13.4766 8.62947 12.4966 8.73742C11.5167 8.84537 10.6069 9.29784 9.92954 10.0142C9.25216 10.7305 8.8512 11.6641 8.79815 12.6485C8.74509 13.633 9.04338 14.6043 9.63984 15.3892C10.2363 16.1742 11.0922 16.7218 12.0548 16.9345C13.0175 17.1471 14.0244 17.011 14.896 16.5503L17.728 19.3791C17.9775 19.629 18.3161 19.7696 18.6693 19.7699C19.0225 19.7702 19.3613 19.6302 19.6112 19.3807C19.8612 19.1312 20.0017 18.7926 20.002 18.4394C20.0023 18.0863 19.8623 17.7474 19.6128 17.4975V17.4879ZM9.44002 12.8735C9.44002 12.1773 9.64646 11.4968 10.0332 10.9179C10.42 10.339 10.9698 9.88786 11.613 9.62144C12.2562 9.35502 12.9639 9.28531 13.6467 9.42113C14.3295 9.55695 14.9568 9.8922 15.449 10.3845C15.9413 10.8768 16.2766 11.504 16.4124 12.1868C16.5482 12.8696 16.4785 13.5773 16.2121 14.2205C15.9457 14.8637 15.4945 15.4135 14.9156 15.8003C14.3368 16.1871 13.6562 16.3935 12.96 16.3935C12.0265 16.3935 11.1311 16.0226 10.471 15.3625C9.81087 14.7024 9.44002 13.8071 9.44002 12.8735ZM19.1584 18.9183C19.0283 19.0477 18.8523 19.1203 18.6688 19.1203C18.4853 19.1203 18.3093 19.0477 18.1792 18.9183L15.4528 16.1919C15.8268 15.9093 16.1513 15.5665 16.4128 15.1775L19.1648 17.9423C19.2931 18.0727 19.3645 18.2487 19.3633 18.4316C19.3621 18.6146 19.2884 18.7896 19.1584 18.9183Z" fill="white"/>
<path d="M11.5424 14.4C11.3193 14.2404 11.1302 14.0379 10.9861 13.8044C10.842 13.571 10.7459 13.3112 10.7032 13.0401C10.6606 12.7691 10.6723 12.4923 10.7377 12.2259C10.8032 11.9594 10.921 11.7087 11.0843 11.4882C11.2476 11.2678 11.4532 11.0821 11.689 10.9419C11.9248 10.8017 12.1862 10.7098 12.4579 10.6717C12.7296 10.6335 13.0061 10.6499 13.2715 10.7197C13.5368 10.7895 13.7855 10.9115 14.0032 11.0784L13.6224 11.5936C13.4718 11.482 13.3006 11.4012 13.1188 11.3558C12.9369 11.3104 12.7478 11.3012 12.5624 11.3289C12.377 11.3565 12.1988 11.4204 12.0381 11.5169C11.8774 11.6134 11.7372 11.7406 11.6256 11.8912C11.5141 12.0419 11.4333 12.213 11.3878 12.3949C11.3424 12.5768 11.3333 12.7658 11.3609 12.9513C11.3885 13.1367 11.4524 13.3148 11.5489 13.4756C11.6454 13.6363 11.7726 13.7764 11.9232 13.888L11.5424 14.4Z" fill="white"/>
</g>
<defs>
<linearGradient id="paint0_linear_4674_3439" x1="-4.9696" y1="28.9696" x2="28.9728" y2="-4.9728" gradientUnits="userSpaceOnUse">
<stop stop-color="#4D27A8"/>
<stop offset="1" stop-color="#A166FF"/>
</linearGradient>
<clipPath id="clip0_4674_3439">
<rect width="24" height="24" fill="white"/>
</clipPath>
</defs>
</svg>
