<svg width="48" height="49" viewBox="0 0 48 49" fill="none" xmlns="http://www.w3.org/2000/svg">
<g clip-path="url(#clip0_4302_44049)">
<path d="M48 0.859863H0V48.8599H48V0.859863Z" fill="url(#paint0_linear_4302_44049)"/>
<path d="M39.36 40.2198H34.88V38.9398H38.72V10.7798H9.28V38.9398H27.2V40.2198H8.64C8.47026 40.2198 8.30748 40.1523 8.18745 40.0323C8.06743 39.9123 8 39.7495 8 39.5798V10.1398C8 9.97002 8.06743 9.80723 8.18745 9.68721C8.30748 9.56718 8.47026 9.49976 8.64 9.49976H39.36C39.5297 9.49976 39.6925 9.56718 39.8125 9.68721C39.9326 9.80723 40 9.97002 40 10.1398V39.5798C40 39.7495 39.9326 39.9123 39.8125 40.0323C39.6925 40.1523 39.5297 40.2198 39.36 40.2198Z" fill="white"/>
<path d="M39.36 14.6199H8.64001V15.8999H39.36V14.6199Z" fill="white"/>
<path d="M11.8401 12.0598H10.5601V13.3398H11.8401V12.0598Z" fill="white"/>
<path d="M14.4 12.0598H13.12V13.3398H14.4V12.0598Z" fill="white"/>
<path d="M16.9601 12.0598H15.6801V13.3398H16.9601V12.0598Z" fill="white"/>
<path d="M15.36 33.3781L14.4576 32.4693L20.1472 26.7861L14.4576 21.0965L15.36 20.1877L21.504 26.3317C21.5634 26.3915 21.6103 26.4625 21.6421 26.5404C21.674 26.6184 21.6901 26.7019 21.6896 26.7861C21.6889 26.954 21.6223 27.1149 21.504 27.2341L15.36 33.3781Z" fill="white"/>
<path d="M32.32 29.9797H22.72V31.2597H32.32V29.9797Z" fill="white"/>
</g>
<defs>
<linearGradient id="paint0_linear_4302_44049" x1="-9.9392" y1="58.7991" x2="57.9392" y2="-9.07934" gradientUnits="userSpaceOnUse">
<stop stop-color="#B0084D"/>
<stop offset="1" stop-color="#FF4F8B"/>
</linearGradient>
<clipPath id="clip0_4302_44049">
<rect width="48" height="48" fill="white" transform="translate(0 0.859863)"/>
</clipPath>
</defs>
</svg>
