<svg width="24" height="24" viewBox="0 0 24 24" fill="none" xmlns="http://www.w3.org/2000/svg">
<path d="M15.9053 12.5303C16.1982 12.2374 16.1982 11.7626 15.9053 11.4697C15.6124 11.1768 15.1376 11.1768 14.8447 11.4697L10.875 15.4393L9.15533 13.7197C8.86244 13.4268 8.38756 13.4268 8.09467 13.7197C7.80178 14.0126 7.80178 14.4874 8.09467 14.7803L10.3447 17.0303C10.6376 17.3232 11.1124 17.3232 11.4053 17.0303L15.9053 12.5303Z" fill="#512FC9"/>
<path fill-rule="evenodd" clip-rule="evenodd" d="M16.5 1.5C16.9142 1.5 17.25 1.83579 17.25 2.25V3H19.5C20.3284 3 21 3.67157 21 4.5V19.5C21 20.3284 20.3284 21 19.5 21H4.5C3.67157 21 3 20.3284 3 19.5V4.5C3 3.67157 3.67157 3 4.5 3H6.75V2.25C6.75 1.83579 7.08579 1.5 7.5 1.5C7.91421 1.5 8.25 1.83579 8.25 2.25V3H15.75V2.25C15.75 1.83579 16.0858 1.5 16.5 1.5ZM17.25 4.5H19.5V7.5H4.5V4.5H6.75V5.25C6.75 5.66421 7.08579 6 7.5 6C7.91421 6 8.25 5.66421 8.25 5.25V4.5H15.75V5.25C15.75 5.66421 16.0858 6 16.5 6C16.9142 6 17.25 5.66421 17.25 5.25V4.5ZM19.5 9H4.5V19.5H19.5V9Z" fill="#512FC9"/>
</svg>
