<svg width="16" height="16" viewBox="0 0 16 16" fill="none" xmlns="http://www.w3.org/2000/svg">
<path d="M4.35355 1.64645C4.54882 1.84171 4.54882 2.15829 4.35355 2.35355L2.70711 4L4.35355 5.64645C4.54882 5.84171 4.54882 6.15829 4.35355 6.35355C4.15829 6.54882 3.84171 6.54882 3.64645 6.35355L1.64645 4.35355C1.45118 4.15829 1.45118 3.84171 1.64645 3.64645L3.64645 1.64645C3.84171 1.45118 4.15829 1.45118 4.35355 1.64645Z" fill="black"/>
<path d="M6.14645 1.64645C6.34171 1.45118 6.65829 1.45118 6.85355 1.64645L8.85355 3.64645C9.04882 3.84171 9.04882 4.15829 8.85355 4.35355L6.85355 6.35355C6.65829 6.54882 6.34171 6.54882 6.14645 6.35355C5.95118 6.15829 5.95118 5.84171 6.14645 5.64645L7.79289 4L6.14645 2.35355C5.95118 2.15829 5.95118 1.84171 6.14645 1.64645Z" fill="black"/>
<path d="M11 2.5C10.7239 2.5 10.5 2.72386 10.5 3C10.5 3.27614 10.7239 3.5 11 3.5H12.5V12.5H3.5V8.5C3.5 8.22386 3.27614 8 3 8C2.72386 8 2.5 8.22386 2.5 8.5V12.5C2.5 12.7652 2.60536 13.0196 2.79289 13.2071C2.98043 13.3946 3.23478 13.5 3.5 13.5H12.5C12.7652 13.5 13.0196 13.3946 13.2071 13.2071C13.3946 13.0196 13.5 12.7652 13.5 12.5V3.5C13.5 3.23478 13.3946 2.98043 13.2071 2.79289C13.0196 2.60536 12.7652 2.5 12.5 2.5H11Z" fill="black"/>
</svg>
