<svg width="17" height="17" viewBox="0 0 17 17" fill="none" xmlns="http://www.w3.org/2000/svg">
<path d="M5 2.5C4.72386 2.5 4.5 2.72386 4.5 3C4.5 3.27614 4.72386 3.5 5 3.5H13.5V12C13.5 12.2761 13.7239 12.5 14 12.5C14.2761 12.5 14.5 12.2761 14.5 12V3C14.5 2.72386 14.2761 2.5 14 2.5H5Z" fill="black"/>
<path fill-rule="evenodd" clip-rule="evenodd" d="M3 4.5C2.72386 4.5 2.5 4.72386 2.5 5V14C2.5 14.2761 2.72386 14.5 3 14.5H12C12.2761 14.5 12.5 14.2761 12.5 14V5C12.5 4.72386 12.2761 4.5 12 4.5H3ZM3.5 13.5V5.5H11.5V13.5H3.5Z" fill="black"/>
</svg>
