<svg width="16" height="17" viewBox="0 0 16 17" fill="none" xmlns="http://www.w3.org/2000/svg">
<path d="M8 10C8.27614 10 8.5 10.2239 8.5 10.5C8.5 10.7761 8.27614 11 8 11H6C5.72386 11 5.5 10.7761 5.5 10.5C5.5 10.2239 5.72386 10 6 10H8Z" fill="black"/>
<path d="M10 8C10.2761 8 10.5 8.22386 10.5 8.5C10.5 8.77614 10.2761 9 10 9H6C5.72386 9 5.5 8.77614 5.5 8.5C5.5 8.22386 5.72386 8 6 8H10Z" fill="black"/>
<path d="M10 6C10.2761 6 10.5 6.22386 10.5 6.5C10.5 6.77614 10.2761 7 10 7H6C5.72386 7 5.5 6.77614 5.5 6.5C5.5 6.22386 5.72386 6 6 6H10Z" fill="black"/>
<path fill-rule="evenodd" clip-rule="evenodd" d="M13 2.5C13.2652 2.5 13.5195 2.60543 13.707 2.79297C13.8946 2.98051 14 3.23478 14 3.5V10.2936C13.9999 10.431 13.9707 10.5651 13.9173 10.6888C13.915 10.6944 13.912 10.6996 13.9095 10.7051C13.8604 10.8133 13.7933 10.9136 13.7077 10.9993L10.4993 14.2077C10.4126 14.2943 10.311 14.3623 10.2012 14.4115C10.1979 14.4129 10.1947 14.4146 10.1914 14.416C10.0669 14.4702 9.93198 14.4999 9.79362 14.5H3C2.73478 14.5 2.48051 14.3946 2.29297 14.207C2.10543 14.0195 2 13.7652 2 13.5V3.5C2 3.23478 2.10543 2.9805 2.29297 2.79297C2.4805 2.60543 2.73478 2.5 3 2.5H13ZM3 13.5H9.5V10.4993C9.5 10.2232 9.72386 9.99935 10 9.99935H13V3.5H3V13.5ZM10.5 10.9993V12.793L12.2936 10.9993H10.5Z" fill="black"/>
</svg>
