<svg width="20" height="20" viewBox="0 0 20 20" fill="none" xmlns="http://www.w3.org/2000/svg">
<path fill-rule="evenodd" clip-rule="evenodd" d="M5.93735 1.875C6.72462 1.87482 7.49925 2.07292 8.18977 2.45103C8.77744 2.77281 9.28807 3.21616 9.68845 3.75H11.5615C11.9619 3.21616 12.4726 2.77281 13.0602 2.45103C13.7507 2.07292 14.5254 1.87482 15.3126 1.875C15.5357 1.87505 15.7418 1.99398 15.8535 2.18708C16.2038 2.79265 16.4139 3.46904 16.4683 4.1665C16.5144 4.75704 16.448 5.34997 16.2735 5.91401C16.6608 6.58329 16.8689 7.34326 16.875 8.12012L16.875 8.125L16.875 8.75C16.875 9.91032 16.4141 11.0231 15.5936 11.8436C14.9144 12.5227 14.035 12.9555 13.0941 13.0845C13.517 13.6296 13.75 14.3028 13.75 15V18.125C13.75 18.4702 13.4702 18.75 13.125 18.75C12.7798 18.75 12.5 18.4702 12.5 18.125V15C12.5 14.5027 12.3025 14.0258 11.9508 13.6742C11.5992 13.3225 11.1223 13.125 10.625 13.125C10.1277 13.125 9.65081 13.3225 9.29917 13.6742C8.94754 14.0258 8.75 14.5027 8.75 15V18.125C8.75 18.4702 8.47018 18.75 8.125 18.75C7.77982 18.75 7.5 18.4702 7.5 18.125V16.875H5.625C4.7962 16.875 4.00134 16.5458 3.41529 15.9597C2.82924 15.3737 2.5 14.5788 2.5 13.75C2.5 13.2527 2.30246 12.7758 1.95082 12.4242C1.59919 12.0725 1.12228 11.875 0.625 11.875C0.279822 11.875 0 11.5952 0 11.25C0 10.9048 0.279822 10.625 0.625 10.625C1.4538 10.625 2.24866 10.9542 2.83471 11.5403C3.42076 12.1263 3.75 12.9212 3.75 13.75C3.75 14.2473 3.94754 14.7242 4.29917 15.0758C4.65081 15.4275 5.12772 15.625 5.625 15.625H7.5V15C7.5 14.3028 7.73301 13.6296 8.15589 13.0845C7.215 12.9555 6.33555 12.5227 5.65641 11.8436C4.83594 11.0231 4.375 9.91032 4.375 8.75V8.12012C4.38107 7.34326 4.58924 6.58328 4.97647 5.91401C4.80203 5.34996 4.73557 4.75703 4.78168 4.1665C4.83613 3.46904 5.04621 2.79265 5.39648 2.18708C5.50816 1.99398 5.71429 1.87505 5.93735 1.875ZM12.5 11.875H8.75C7.9212 11.875 7.12634 11.5458 6.54029 10.9597C5.95424 10.3737 5.625 9.5788 5.625 8.75V8.12755C5.63043 7.49088 5.82419 6.87005 6.1819 6.3433C6.29709 6.17367 6.32175 5.95831 6.24788 5.76702C6.06314 5.28868 5.98797 4.77501 6.02788 4.26379C6.0581 3.87678 6.1537 3.49861 6.30975 3.14511C6.75739 3.19375 7.19237 3.33 7.58942 3.54742C8.0958 3.8247 8.52419 4.22505 8.83506 4.71154C8.9499 4.89125 9.14845 5 9.36172 5H11.8883C12.1016 5 12.3001 4.89125 12.4149 4.71154C12.7258 4.22505 13.1542 3.8247 13.6606 3.54742C14.0576 3.33 14.4926 3.19375 14.9402 3.14511C15.0963 3.49861 15.1919 3.87678 15.2221 4.26379C15.262 4.77501 15.1869 5.28868 15.0021 5.76702C14.9283 5.95831 14.9529 6.17367 15.0681 6.3433C15.4258 6.87005 15.6196 7.49088 15.625 8.12755V8.75C15.625 9.5788 15.2958 10.3737 14.7097 10.9597C14.1237 11.5458 13.3288 11.875 12.5 11.875Z" fill="black" fill-opacity="0.72"/>
</svg>
