<svg width="16" height="17" viewBox="0 0 16 17" fill="none" xmlns="http://www.w3.org/2000/svg">
<path d="M2 4.1543C2 3.87815 2.22386 3.6543 2.5 3.6543H13.5C13.7761 3.6543 14 3.87815 14 4.1543C14 4.43044 13.7761 4.6543 13.5 4.6543H2.5C2.22386 4.6543 2 4.43044 2 4.1543Z" fill="black" fill-opacity="0.72"/>
<path d="M2 8.1543C2 7.87815 2.22386 7.6543 2.5 7.6543H13.5C13.7761 7.6543 14 7.87815 14 8.1543C14 8.43044 13.7761 8.6543 13.5 8.6543H2.5C2.22386 8.6543 2 8.43044 2 8.1543Z" fill="black" fill-opacity="0.72"/>
<path d="M2.5 11.6543C2.22386 11.6543 2 11.8782 2 12.1543C2 12.4304 2.22386 12.6543 2.5 12.6543H13.5C13.7761 12.6543 14 12.4304 14 12.1543C14 11.8782 13.7761 11.6543 13.5 11.6543H2.5Z" fill="black" fill-opacity="0.72"/>
</svg>
