<svg width="16" height="16" viewBox="0 0 16 16" fill="none" xmlns="http://www.w3.org/2000/svg">
<path fill-rule="evenodd" clip-rule="evenodd" d="M7 1.5C3.96243 1.5 1.5 3.96243 1.5 7C1.5 10.0376 3.96243 12.5 7 12.5C8.33867 12.5 9.56563 12.0217 10.5194 11.2268L13.6463 14.3537C13.8416 14.549 14.1581 14.549 14.3534 14.3537C14.5487 14.1585 14.5487 13.8419 14.3534 13.6466L11.2265 10.5197C12.0216 9.56593 12.5 8.33883 12.5 7C12.5 3.96243 10.0376 1.5 7 1.5ZM2.5 7C2.5 4.51472 4.51472 2.5 7 2.5C9.48528 2.5 11.5 4.51472 11.5 7C11.5 9.48528 9.48528 11.5 7 11.5C4.51472 11.5 2.5 9.48528 2.5 7Z" fill="black" fill-opacity="0.72"/>
</svg>
