<svg width="40" height="40" viewBox="0 0 40 40" fill="none" xmlns="http://www.w3.org/2000/svg">
<path d="M11.6667 19.1667C12.5871 19.1667 13.3333 18.4205 13.3333 17.5C13.3333 16.5795 12.5871 15.8333 11.6667 15.8333C10.7462 15.8333 10 16.5795 10 17.5C10 18.4205 10.7462 19.1667 11.6667 19.1667Z" fill="black" fill-opacity="0.72"/>
<path d="M19.1667 17.5C19.1667 18.4205 18.4205 19.1667 17.5 19.1667C16.5795 19.1667 15.8333 18.4205 15.8333 17.5C15.8333 16.5795 16.5795 15.8333 17.5 15.8333C18.4205 15.8333 19.1667 16.5795 19.1667 17.5Z" fill="black" fill-opacity="0.72"/>
<path d="M23.3333 19.1667C24.2538 19.1667 25 18.4205 25 17.5C25 16.5795 24.2538 15.8333 23.3333 15.8333C22.4129 15.8333 21.6667 16.5795 21.6667 17.5C21.6667 18.4205 22.4129 19.1667 23.3333 19.1667Z" fill="black" fill-opacity="0.72"/>
<path fill-rule="evenodd" clip-rule="evenodd" d="M3.75 17.5C3.75 9.90608 9.90609 3.75 17.5 3.75C25.0939 3.75 31.25 9.90608 31.25 17.5C31.25 20.8471 30.0541 23.9148 28.0662 26.2993L35.8835 34.1166C36.3717 34.6047 36.3717 35.3962 35.8835 35.8843C35.3954 36.3725 34.6039 36.3725 34.1158 35.8843L26.2984 28.067C23.9141 30.0544 20.8467 31.25 17.5 31.25C9.90609 31.25 3.75 25.0939 3.75 17.5ZM17.5 6.25C11.2868 6.25 6.25 11.2868 6.25 17.5C6.25 23.7132 11.2868 28.75 17.5 28.75C23.7132 28.75 28.75 23.7132 28.75 17.5C28.75 11.2868 23.7132 6.25 17.5 6.25Z" fill="black" fill-opacity="0.72"/>
</svg>
