<svg width="71" height="71" viewBox="0 0 71 71" fill="none" xmlns="http://www.w3.org/2000/svg">
<path d="M23.8942 32.4278L30.7212 23.8942H37.5481V47.1057H30.7212V33.7932L23.8942 42.3269L17.0673 33.7932V47.1057H10.2404V23.8942H17.0673L23.8942 32.4278Z" fill="black"/>
<path d="M56.3221 35.8413H63.149L52.9087 47.1057L42.6683 35.8413H49.4952V23.8942H56.3221V35.8413Z" fill="black"/>
<path fill-rule="evenodd" clip-rule="evenodd" d="M65.8798 13.6538C68.7076 13.6538 71 15.9462 71 18.774V52.2259C71 55.0537 68.7076 57.3461 65.8798 57.3461H5.12019C2.29239 57.3461 0 55.0537 0 52.2259V18.774C0 15.9462 2.29239 13.6538 5.12019 13.6538H65.8798ZM5.12019 17.0673C4.17759 17.0673 3.41346 17.8314 3.41346 18.774V52.2259C3.41346 53.1685 4.17759 53.9327 5.12019 53.9327H65.8798C66.8224 53.9327 67.5865 53.1685 67.5865 52.2259V18.774C67.5865 17.8314 66.8224 17.0673 65.8798 17.0673H5.12019Z" fill="black"/>
</svg>
