<svg width="16" height="17" viewBox="0 0 16 17" fill="none" xmlns="http://www.w3.org/2000/svg">
<path d="M13.5 3C14.0523 3 14.5 3.44772 14.5 4V13C14.5 13.5523 14.0523 14 13.5 14H2.5C1.94772 14 1.5 13.5523 1.5 13V4C1.5 3.44772 1.94772 3 2.5 3H13.5ZM2.5 13H13.5V4H2.5V13ZM11 10C11.2761 10 11.5 10.2239 11.5 10.5C11.5 10.7761 11.2761 11 11 11H8.5C8.22386 11 8 10.7761 8 10.5C8 10.2239 8.22386 10 8.5 10H11ZM4.60938 6.1875C4.78187 5.97188 5.09687 5.93689 5.3125 6.10938L7.8125 8.10938C7.9311 8.20426 7.99999 8.34811 8 8.5C8 8.65189 7.93111 8.79574 7.8125 8.89062L5.3125 10.8906C5.09687 11.0631 4.78188 11.0281 4.60938 10.8125C4.43689 10.5969 4.47188 10.2819 4.6875 10.1094L6.69922 8.5L4.6875 6.89062C4.47189 6.71812 4.43688 6.40312 4.60938 6.1875Z" fill="white"/>
</svg>
