<svg width="156" height="48" viewBox="0 0 156 48" fill="none" xmlns="http://www.w3.org/2000/svg">
<path fill-rule="evenodd" clip-rule="evenodd" d="M89.6302 10.1632C90.7267 10.1632 91.7409 10.4009 92.6778 10.8715C93.6098 11.3421 94.4165 12.0265 95.0925 12.9202C95.7685 13.8138 96.3 14.9023 96.6862 16.1953C97.0725 17.4881 97.2658 18.9522 97.2658 20.5921C97.2658 22.1275 97.0436 23.544 96.604 24.8417C96.1645 26.1393 95.5462 27.2706 94.7542 28.226C93.9622 29.1815 93.0156 29.9325 91.9098 30.4696C90.8089 31.0068 89.5867 31.2777 88.2445 31.2777C87.148 31.2777 86.2253 31.1256 85.4818 30.8261C84.7382 30.5267 84.0618 30.1179 83.4534 29.6045V37.4381H77.1605V10.5625H81.2511C81.5605 10.591 81.8258 10.6766 82.0431 10.8192C82.3089 10.9903 82.4925 11.247 82.6036 11.5845L83.072 13.0818L83.3809 12.7633C83.6947 12.4543 84.028 12.1644 84.3805 11.8982C84.8493 11.5417 85.3467 11.2375 85.8827 10.9856C86.4187 10.7289 86.9934 10.5292 87.6067 10.3866C88.2249 10.244 88.896 10.168 89.6254 10.168L89.6302 10.1632ZM30.4257 10.244C31.8214 10.244 33.0964 10.4532 34.2507 10.8715C35.4097 11.2897 36.4046 11.9029 37.2353 12.7015C38.066 13.5001 38.718 14.484 39.1864 15.6438C39.6549 16.8037 39.8867 18.1204 39.8867 19.5892C39.8867 20.0502 39.8673 20.421 39.8239 20.7109C39.7853 21.0009 39.708 21.2291 39.6017 21.4002C39.4955 21.5713 39.3458 21.6901 39.1671 21.7567C38.9884 21.8233 38.7517 21.8565 38.4668 21.8565H26.3255L26.3689 22.1893C26.6008 23.7246 27.1175 24.8464 27.9289 25.5641C28.7933 26.3294 29.9138 26.7145 31.2805 26.7145C32.0098 26.7145 32.6425 26.6289 33.1688 26.4578C33.6953 26.2867 34.1686 26.0965 34.5791 25.8874C34.9896 25.6782 35.3711 25.4881 35.714 25.317C36.0569 25.1458 36.4191 25.0603 36.8006 25.0603C37.3029 25.0603 37.6796 25.2361 37.9356 25.5927L39.7611 27.7792L39.481 28.0787C38.9111 28.6633 38.3074 29.1529 37.6603 29.538C36.9069 29.9895 36.139 30.3461 35.3469 30.6027C34.5549 30.8594 33.7629 31.0353 32.9709 31.1351C32.1788 31.2349 31.4254 31.2825 30.7058 31.2825C29.2328 31.2825 27.8468 31.0495 26.5525 30.5837C25.2582 30.1179 24.1281 29.4239 23.1622 28.5065C22.1963 27.5891 21.4284 26.4483 20.8682 25.0841C20.308 23.7198 20.0279 22.1322 20.0279 20.3212C20.0279 18.9569 20.2693 17.6641 20.7474 16.4424C21.2256 15.2208 21.9162 14.1513 22.8193 13.2339C23.7176 12.3165 24.809 11.5892 26.0889 11.0473C27.3687 10.5102 28.8127 10.2393 30.4257 10.2393V10.244ZM64.0871 10.244C65.4831 10.244 66.7578 10.4532 67.912 10.8715C69.0711 11.2897 70.0662 11.9029 70.8969 12.7015C71.7276 13.5001 72.3796 14.484 72.848 15.6438C73.3165 16.8037 73.548 18.1204 73.548 19.5892C73.548 20.0502 73.5289 20.421 73.4853 20.7109C73.4467 21.0009 73.3693 21.2291 73.2631 21.4002C73.1569 21.5713 73.0071 21.6901 72.8285 21.7567C72.6449 21.8233 72.4133 21.8565 72.1285 21.8565H59.9871L60.0302 22.1893C60.2622 23.7246 60.7791 24.8464 61.5902 25.5641C62.4547 26.3294 63.5751 26.7145 64.9422 26.7145C65.6711 26.7145 66.304 26.6289 66.8302 26.4578C67.3569 26.2867 67.8302 26.0965 68.2405 25.8874C68.6511 25.6782 69.0325 25.4881 69.3756 25.317C69.7182 25.1458 70.0805 25.0603 70.4622 25.0603C70.9645 25.0603 71.3409 25.2361 71.5969 25.5927L73.4227 27.7792L73.1427 28.0787C72.5725 28.6633 71.9689 29.1529 71.3218 29.538C70.5685 29.9895 69.8005 30.3461 69.0085 30.6027C68.2165 30.8594 67.4245 31.0353 66.6325 31.1351C65.8405 31.2349 65.0871 31.2825 64.3671 31.2825C62.8942 31.2825 61.5085 31.0495 60.2138 30.5837C58.9196 30.1179 57.7893 29.4239 56.8236 28.5065C55.8578 27.5891 55.0898 26.4483 54.5298 25.0841C53.9693 23.7198 53.6893 22.1322 53.6893 20.3212C53.6893 18.9569 53.9307 17.6641 54.4089 16.4424C54.8871 15.2208 55.5778 14.1513 56.4809 13.2339C57.3791 12.3165 58.4707 11.5892 59.7502 11.0473C61.0302 10.5102 62.4742 10.2393 64.0871 10.2393V10.244ZM110.011 10.244C111.609 10.244 113.063 10.4865 114.376 10.9713C115.69 11.4561 116.816 12.1501 117.757 13.058C118.699 13.9612 119.428 15.064 119.95 16.3521C120.472 17.645 120.732 19.0948 120.732 20.7109C120.732 22.3271 120.472 23.8054 119.95 25.1078C119.428 26.415 118.699 27.5225 117.757 28.4352C116.816 29.3478 115.69 30.0466 114.376 30.5409C113.063 31.0305 111.609 31.2777 110.011 31.2777C108.412 31.2777 106.934 31.0305 105.616 30.5409C104.297 30.0513 103.158 29.3478 102.206 28.4352C101.25 27.5225 100.516 26.415 99.9942 25.1078C99.4729 23.8006 99.212 22.3366 99.212 20.7109C99.212 19.0853 99.4729 17.645 99.9942 16.3521C100.516 15.0592 101.255 13.9612 102.206 13.058C103.158 12.1549 104.297 11.4561 105.616 10.9713C106.934 10.4865 108.403 10.244 110.011 10.244ZM148.463 4.63504V10.5958H153.577V14.7693H148.463V24.9034L148.473 25.1031C148.502 25.4881 148.618 25.8113 148.82 26.0775C149.057 26.3865 149.4 26.5386 149.844 26.5386C150.076 26.5386 150.269 26.5148 150.424 26.4721C150.578 26.4293 150.714 26.3722 150.829 26.3152C150.945 26.2581 151.052 26.2058 151.153 26.1583C151.255 26.1108 151.375 26.0918 151.51 26.0918C151.699 26.0918 151.853 26.1345 151.969 26.2201C152.085 26.3057 152.201 26.4388 152.327 26.6241L154.234 29.5189L153.925 29.7329C153.191 30.2177 152.38 30.5885 151.496 30.8451C150.482 31.1398 149.434 31.2872 148.347 31.2872C147.348 31.2872 146.464 31.1446 145.696 30.8641C144.933 30.5837 144.29 30.1797 143.769 29.6616C143.247 29.1434 142.851 28.516 142.581 27.784C142.31 27.0472 142.175 26.2296 142.175 25.3265V14.7787H140.388L140.229 14.7693C139.973 14.7407 139.746 14.6409 139.552 14.4745C139.321 14.2701 139.21 13.9707 139.21 13.5809V11.1994L142.561 10.572L143.798 5.59521L143.846 5.44312C144.039 4.91548 144.484 4.6493 145.179 4.6493H148.468L148.463 4.63504ZM23.5147 2.29638V7.56788H15.1887V30.964H8.326V7.56788H0V2.29638H23.5099H23.5147ZM49.9996 1.50732V30.964H43.7068V1.50732H49.9996ZM135.839 10.168C136.8 10.168 137.572 10.3914 138.152 10.8382L137.341 15.3254L137.302 15.4822C137.239 15.6771 137.148 15.8197 137.017 15.9053C136.853 16.0146 136.64 16.0717 136.365 16.0717C136.133 16.0717 135.863 16.0431 135.554 15.9813C135.245 15.9243 134.849 15.891 134.376 15.891C132.724 15.891 131.424 16.7419 130.478 18.4484V30.964H124.185V10.5625H128.145C128.358 10.5768 128.546 10.6005 128.701 10.6433C128.908 10.6956 129.087 10.7764 129.227 10.8905C129.367 10.9998 129.478 11.1519 129.551 11.3325C129.623 11.5179 129.691 11.7413 129.744 12.0028L130.087 13.9136L130.348 13.5381C131.053 12.5589 131.83 11.7746 132.685 11.1805C133.646 10.5102 134.694 10.1775 135.834 10.1775L135.839 10.168ZM87.4378 14.831C86.9791 14.831 86.5636 14.8738 86.1867 14.9594C85.8151 15.0449 85.4671 15.1637 85.1534 15.3254C84.8347 15.4822 84.54 15.6819 84.2698 15.9243C83.9991 16.1667 83.7289 16.4472 83.4582 16.7609V25.4215L83.6658 25.6307C84.0814 26.03 84.5254 26.3199 85.0036 26.491C85.5591 26.6954 86.1387 26.7953 86.752 26.7953C87.3653 26.7953 87.8676 26.6859 88.3551 26.4625C88.8431 26.2391 89.2631 25.8826 89.6254 25.3883C89.9827 24.8987 90.2631 24.257 90.4658 23.4679C90.6685 22.6789 90.7702 21.7234 90.7702 20.5969C90.7702 19.4703 90.688 18.6147 90.5285 17.8827C90.3645 17.1459 90.1374 16.5565 89.8476 16.1002C89.5578 15.6486 89.2102 15.3206 88.7996 15.1257C88.3938 14.9309 87.94 14.831 87.4378 14.831ZM110.016 14.774C108.528 14.774 107.436 15.2636 106.746 16.2475C106.056 17.2315 105.712 18.7336 105.712 20.7537C105.712 22.7739 106.056 24.2807 106.746 25.2694C107.436 26.2581 108.528 26.7573 110.016 26.7573C111.503 26.7573 112.532 26.2629 113.212 25.2694C113.898 24.2807 114.236 22.7739 114.236 20.7537C114.236 18.7336 113.894 17.2315 113.212 16.2475C112.527 15.2636 111.464 14.774 110.016 14.774ZM30.5513 14.4555C29.3488 14.4555 28.407 14.7882 27.7309 15.4489C27.0548 16.1097 26.6056 17.0651 26.3931 18.3105H34.2507C34.2507 17.8257 34.1879 17.3551 34.0575 16.894C33.9271 16.4329 33.7194 16.0241 33.4296 15.6629C33.1399 15.3016 32.7584 15.0117 32.2802 14.7882C31.8069 14.5649 31.2322 14.4555 30.5561 14.4555H30.5513ZM64.2129 14.4555C63.0102 14.4555 62.0685 14.7882 61.3925 15.4489C60.716 16.1097 60.2671 17.0651 60.0547 18.3105H67.912C67.912 17.8257 67.8493 17.3551 67.7191 16.894C67.5885 16.4329 67.3809 16.0241 67.0911 15.6629C66.8013 15.3016 66.42 15.0117 65.9418 14.7882C65.4685 14.5649 64.8938 14.4555 64.2178 14.4555H64.2129Z" fill="#512FC9"/>
<path d="M135.996 40.9965C135.996 41.6096 135.892 42.1745 135.684 42.6911C135.48 43.204 135.188 43.6454 134.811 44.0156C134.436 44.3858 133.985 44.6749 133.457 44.8833C132.929 45.0913 132.343 45.1953 131.699 45.1953H128.472V36.8032H131.699C132.343 36.8032 132.929 36.9074 133.457 37.1156C133.985 37.3238 134.436 37.6149 134.811 37.9889C135.188 38.3591 135.48 38.8006 135.684 39.3134C135.892 39.8262 135.996 40.3873 135.996 40.9965ZM134.215 40.9965C134.215 40.5569 134.157 40.1617 134.041 39.8108C133.926 39.4599 133.76 39.163 133.544 38.9201C133.328 38.6772 133.064 38.4902 132.752 38.3591C132.443 38.228 132.092 38.1624 131.699 38.1624H130.218V43.8363H131.699C132.092 43.8363 132.443 43.7727 132.752 43.6454C133.064 43.5144 133.328 43.3274 133.544 43.0844C133.76 42.8377 133.926 42.5388 134.041 42.1879C134.157 41.837 134.215 41.4399 134.215 40.9965ZM139.702 39.1399C140.15 39.1399 140.556 39.2112 140.923 39.3539C141.289 39.4966 141.603 39.7009 141.865 39.967C142.128 40.2292 142.33 40.5492 142.473 40.9271C142.616 41.305 142.687 41.731 142.687 42.2053C142.687 42.6796 142.616 43.1076 142.473 43.4893C142.33 43.8672 142.128 44.1891 141.865 44.4552C141.603 44.7211 141.289 44.9255 140.923 45.0682C140.556 45.2109 140.15 45.2824 139.702 45.2824C139.251 45.2824 138.84 45.2109 138.47 45.0682C138.104 44.9255 137.79 44.7211 137.528 44.4552C137.265 44.1891 137.061 43.8672 136.915 43.4893C136.772 43.1076 136.7 42.6796 136.7 42.2053C136.7 41.731 136.772 41.305 136.915 40.9271C137.061 40.5492 137.265 40.2292 137.528 39.967C137.79 39.7009 138.104 39.4966 138.47 39.3539C138.84 39.2112 139.251 39.1399 139.702 39.1399ZM139.702 44.085C140.157 44.085 140.495 43.9289 140.715 43.6166C140.934 43.3004 141.044 42.8319 141.044 42.2111C141.044 41.5942 140.934 41.1295 140.715 40.8172C140.495 40.501 140.157 40.3429 139.702 40.3429C139.236 40.3429 138.892 40.501 138.673 40.8172C138.453 41.1295 138.343 41.5942 138.343 42.2111C138.343 42.8319 138.453 43.3004 138.673 43.6166C138.892 43.9289 139.236 44.085 139.702 44.085ZM148.044 40.5627C147.998 40.6244 147.952 40.6726 147.905 40.7073C147.859 40.7382 147.794 40.7536 147.709 40.7536C147.632 40.7536 147.556 40.7324 147.483 40.6899C147.414 40.6437 147.333 40.5955 147.24 40.5454C147.148 40.4914 147.038 40.4432 146.911 40.4007C146.784 40.3545 146.625 40.3314 146.436 40.3314C146.197 40.3314 145.989 40.3757 145.812 40.4644C145.638 40.5492 145.494 40.6726 145.378 40.8346C145.262 40.9965 145.176 41.1931 145.118 41.4245C145.064 41.6558 145.037 41.9161 145.037 42.2053C145.037 42.8145 145.158 43.2811 145.401 43.605C145.648 43.9289 145.984 44.0908 146.408 44.0908C146.554 44.0908 146.68 44.0792 146.784 44.0561C146.892 44.0291 146.984 43.9963 147.061 43.9578C147.142 43.9192 147.212 43.8768 147.269 43.8306C147.327 43.7843 147.381 43.7418 147.431 43.7033C147.485 43.6647 147.537 43.6339 147.588 43.6108C147.641 43.5838 147.701 43.5703 147.767 43.5703C147.89 43.5703 147.987 43.6166 148.056 43.7091L148.513 44.2874C148.343 44.4841 148.162 44.648 147.969 44.7789C147.776 44.9064 147.576 45.0086 147.368 45.0855C147.163 45.1589 146.955 45.2091 146.743 45.2362C146.531 45.2669 146.321 45.2824 146.112 45.2824C145.746 45.2824 145.399 45.2149 145.072 45.0798C144.744 44.9411 144.456 44.7406 144.21 44.4783C143.963 44.2161 143.766 43.8942 143.62 43.5124C143.477 43.1307 143.406 42.695 143.406 42.2053C143.406 41.7696 143.469 41.3647 143.596 40.9907C143.724 40.6167 143.911 40.2928 144.158 40.019C144.404 39.7453 144.709 39.5313 145.072 39.377C145.438 39.219 145.86 39.1399 146.338 39.1399C146.793 39.1399 147.192 39.2131 147.536 39.3597C147.879 39.5062 148.187 39.7183 148.461 39.9959L148.044 40.5627ZM153.057 40.4586C153.015 40.5242 152.971 40.5723 152.924 40.6032C152.882 40.6302 152.822 40.6437 152.745 40.6437C152.668 40.6437 152.589 40.6244 152.508 40.5858C152.427 40.5473 152.336 40.5068 152.236 40.4644C152.136 40.4181 152.02 40.3757 151.889 40.3371C151.762 40.2986 151.613 40.2793 151.444 40.2793C151.185 40.2793 150.985 40.3333 150.842 40.4412C150.7 40.5454 150.628 40.6842 150.628 40.8577C150.628 40.9772 150.669 41.0774 150.75 41.1584C150.831 41.2394 150.937 41.3107 151.068 41.3724C151.203 41.4303 151.355 41.4862 151.525 41.5402C151.694 41.5903 151.868 41.6462 152.045 41.7079C152.227 41.7696 152.402 41.8409 152.572 41.9219C152.741 42.0029 152.892 42.105 153.023 42.2284C153.158 42.348 153.266 42.4945 153.347 42.668C153.428 42.8377 153.468 43.0439 153.468 43.2869C153.468 43.5761 153.414 43.844 153.306 44.0908C153.202 44.3337 153.048 44.5439 152.844 44.7211C152.639 44.8984 152.384 45.0375 152.08 45.1375C151.775 45.238 151.424 45.2882 151.027 45.2882C150.823 45.2882 150.62 45.2686 150.42 45.2304C150.22 45.1953 150.028 45.1455 149.848 45.0798C149.666 45.0104 149.496 44.9313 149.338 44.8429C149.18 44.754 149.044 44.6576 148.928 44.5535L149.298 43.9578C149.34 43.8884 149.392 43.8344 149.454 43.7958C149.52 43.7573 149.603 43.738 149.703 43.738C149.799 43.738 149.888 43.763 149.969 43.8132C150.05 43.8594 150.14 43.9115 150.241 43.9694C150.341 44.0233 150.459 44.0754 150.593 44.1255C150.732 44.1718 150.904 44.1949 151.108 44.1949C151.263 44.1949 151.396 44.1776 151.508 44.1429C151.619 44.1082 151.71 44.0619 151.779 44.0041C151.848 43.9424 151.899 43.8749 151.93 43.8016C151.964 43.7245 151.982 43.6454 151.982 43.5645C151.982 43.4334 151.939 43.3274 151.854 43.2464C151.773 43.1615 151.665 43.0883 151.531 43.0266C151.4 42.9649 151.247 42.909 151.074 42.8589C150.9 42.8087 150.723 42.7528 150.541 42.6911C150.364 42.6294 150.188 42.5562 150.015 42.4714C149.845 42.3865 149.693 42.2805 149.558 42.1532C149.427 42.0222 149.319 41.8621 149.234 41.6732C149.153 41.4842 149.113 41.2548 149.113 40.9849C149.113 40.7382 149.161 40.5049 149.257 40.2851C149.354 40.0614 149.499 39.8648 149.691 39.6951C149.884 39.5255 150.123 39.3905 150.408 39.2903C150.698 39.19 151.031 39.1399 151.409 39.1399C151.833 39.1399 152.219 39.2093 152.566 39.3481C152.913 39.4869 153.198 39.6682 153.422 39.8918L153.057 40.4586Z" fill="#512FC9"/>
</svg>
