<svg width="239" height="36" viewBox="0 0 239 36" fill="none" xmlns="http://www.w3.org/2000/svg">
<path d="M237.019 15.9279C236.911 16.1002 236.798 16.2241 236.679 16.2995C236.561 16.3642 236.41 16.3965 236.227 16.3965C236.033 16.3965 235.823 16.3426 235.597 16.2349C235.381 16.1272 235.128 16.0087 234.837 15.8794C234.546 15.7393 234.212 15.6155 233.835 15.5077C233.469 15.4 233.033 15.3461 232.526 15.3461C231.74 15.3461 231.121 15.5131 230.668 15.8471C230.216 16.181 229.989 16.6173 229.989 17.156C229.989 17.5115 230.103 17.8131 230.329 18.0609C230.566 18.2979 230.873 18.5079 231.25 18.6911C231.638 18.8742 232.074 19.0412 232.559 19.192C233.043 19.332 233.539 19.4882 234.045 19.6606C234.552 19.833 235.047 20.0323 235.532 20.2585C236.017 20.474 236.448 20.754 236.825 21.0988C237.213 21.4327 237.52 21.8367 237.746 22.3107C237.983 22.7847 238.101 23.3557 238.101 24.0236C238.101 24.8208 237.956 25.5587 237.665 26.2374C237.374 26.9053 236.949 27.487 236.388 27.9825C235.828 28.4673 235.133 28.8498 234.304 29.1298C233.485 29.3992 232.543 29.5338 231.476 29.5338C230.905 29.5338 230.345 29.48 229.795 29.3722C229.257 29.2753 228.734 29.1352 228.228 28.9521C227.733 28.769 227.269 28.5535 226.838 28.3057C226.418 28.058 226.047 27.7886 225.723 27.4978L226.644 25.9788C226.763 25.7957 226.903 25.6556 227.065 25.5587C227.226 25.4617 227.431 25.4133 227.679 25.4133C227.926 25.4133 228.158 25.4833 228.373 25.6233C228.6 25.7634 228.858 25.9142 229.149 26.0758C229.44 26.2374 229.779 26.3882 230.167 26.5282C230.566 26.6683 231.067 26.7383 231.67 26.7383C232.144 26.7383 232.548 26.6844 232.882 26.5767C233.227 26.4582 233.507 26.3074 233.722 26.1243C233.948 25.9411 234.11 25.731 234.207 25.494C234.315 25.2463 234.369 24.9931 234.369 24.7346C234.369 24.3468 234.25 24.029 234.013 23.7812C233.787 23.5334 233.48 23.318 233.092 23.1348C232.715 22.9517 232.279 22.7901 231.783 22.65C231.298 22.4992 230.797 22.3376 230.28 22.1653C229.774 21.9929 229.273 21.7936 228.777 21.5674C228.293 21.3304 227.856 21.0341 227.469 20.6786C227.092 20.3231 226.785 19.8868 226.548 19.3698C226.321 18.8527 226.208 18.2278 226.208 17.4953C226.208 16.8166 226.343 16.1703 226.612 15.5562C226.881 14.9422 227.275 14.4089 227.792 13.9565C228.32 13.4932 228.971 13.127 229.747 12.8576C230.533 12.5775 231.438 12.4375 232.462 12.4375C233.604 12.4375 234.643 12.626 235.58 13.0031C236.518 13.3801 237.299 13.8757 237.924 14.4897L237.019 15.9279Z" fill="black" fill-opacity="0.72"/>
<path d="M223.427 16.2026C223.308 16.3534 223.19 16.4719 223.071 16.5581C222.964 16.6442 222.802 16.6873 222.587 16.6873C222.382 16.6873 222.183 16.6281 221.989 16.5096C221.795 16.3803 221.563 16.2403 221.294 16.0895C221.024 15.9279 220.701 15.7878 220.324 15.6693C219.958 15.54 219.5 15.4754 218.951 15.4754C218.251 15.4754 217.636 15.6047 217.109 15.8632C216.581 16.111 216.139 16.4719 215.784 16.9459C215.439 17.4199 215.18 17.9962 215.008 18.6749C214.836 19.3428 214.749 20.1023 214.749 20.9533C214.749 21.8367 214.841 22.6231 215.024 23.3126C215.218 24.002 215.493 24.5837 215.848 25.0577C216.204 25.521 216.635 25.8765 217.141 26.1243C217.647 26.3612 218.218 26.4797 218.854 26.4797C219.489 26.4797 220.001 26.4043 220.389 26.2535C220.787 26.0919 221.121 25.9196 221.391 25.7364C221.66 25.5425 221.892 25.3702 222.086 25.2193C222.29 25.0578 222.517 24.977 222.764 24.977C223.087 24.977 223.33 25.1008 223.491 25.3486L224.639 26.8029C224.197 27.32 223.718 27.7563 223.201 28.1118C222.683 28.4565 222.145 28.7366 221.585 28.9521C221.035 29.1568 220.464 29.3022 219.872 29.3884C219.279 29.4746 218.692 29.5177 218.11 29.5177C217.087 29.5177 216.123 29.3291 215.218 28.9521C214.313 28.5643 213.521 28.0041 212.843 27.2715C212.175 26.539 211.641 25.6449 211.243 24.5891C210.855 23.5226 210.661 22.3107 210.661 20.9533C210.661 19.736 210.833 18.6103 211.178 17.5761C211.534 16.5311 212.051 15.6316 212.729 14.8775C213.408 14.1127 214.248 13.5148 215.25 13.0839C216.252 12.653 217.405 12.4375 218.708 12.4375C219.947 12.4375 221.03 12.6368 221.956 13.0354C222.894 13.434 223.734 14.0049 224.477 14.7482L223.427 16.2026Z" fill="black" fill-opacity="0.72"/>
<path d="M200.485 12.4375C201.724 12.4375 202.845 12.6368 203.847 13.0354C204.859 13.434 205.721 13.9995 206.432 14.7321C207.143 15.4646 207.692 16.3588 208.08 17.4145C208.468 18.4702 208.662 19.6498 208.662 20.9533C208.662 22.2676 208.468 23.4526 208.08 24.5083C207.692 25.5641 207.143 26.4636 206.432 27.2069C205.721 27.9502 204.859 28.5212 203.847 28.9198C202.845 29.3184 201.724 29.5177 200.485 29.5177C199.247 29.5177 198.121 29.3184 197.108 28.9198C196.096 28.5212 195.228 27.9502 194.507 27.2069C193.796 26.4636 193.241 25.5641 192.842 24.5083C192.454 23.4526 192.26 22.2676 192.26 20.9533C192.26 19.6498 192.454 18.4702 192.842 17.4145C193.241 16.3588 193.796 15.4646 194.507 14.7321C195.228 13.9995 196.096 13.434 197.108 13.0354C198.121 12.6368 199.247 12.4375 200.485 12.4375ZM200.485 26.4474C201.864 26.4474 202.882 25.9842 203.54 25.0577C204.207 24.1313 204.541 22.7739 204.541 20.9857C204.541 19.1974 204.207 17.8346 203.54 16.8974C202.882 15.9602 201.864 15.4916 200.485 15.4916C199.085 15.4916 198.051 15.9656 197.383 16.9136C196.715 17.8508 196.381 19.2082 196.381 20.9857C196.381 22.7632 196.715 24.1205 197.383 25.0577C198.051 25.9842 199.085 26.4474 200.485 26.4474Z" fill="black" fill-opacity="0.72"/>
<path d="M186.643 29.2751C186.126 29.2751 185.787 29.0327 185.625 28.5479L185.302 26.9482C184.957 27.336 184.596 27.6861 184.219 27.9985C183.842 28.3109 183.433 28.5803 182.991 28.8065C182.56 29.0327 182.092 29.2051 181.585 29.3236C181.09 29.4529 180.551 29.5175 179.97 29.5175C179.065 29.5175 178.235 29.329 177.481 28.9519C176.727 28.5749 176.075 28.0309 175.526 27.3199C174.987 26.5981 174.567 25.7093 174.265 24.6536C173.975 23.5979 173.829 22.3913 173.829 21.034C173.829 19.8059 173.996 18.664 174.33 17.6082C174.664 16.5525 175.143 15.6368 175.768 14.8612C176.393 14.0856 177.142 13.4823 178.014 13.0514C178.887 12.6097 179.867 12.3889 180.955 12.3889C181.882 12.3889 182.674 12.5397 183.331 12.8413C183.988 13.1322 184.575 13.5254 185.092 14.0209V5.2627H189.083V29.2751H186.643ZM181.327 26.3503C182.156 26.3503 182.862 26.1779 183.444 25.8332C184.025 25.4885 184.575 24.9983 185.092 24.3627V16.9296C184.64 16.3802 184.144 15.9923 183.605 15.7661C183.077 15.5399 182.507 15.4268 181.892 15.4268C181.289 15.4268 180.74 15.5399 180.244 15.7661C179.759 15.9923 179.345 16.3371 179 16.8003C178.666 17.2527 178.408 17.8345 178.224 18.5455C178.041 19.2457 177.95 20.0752 177.95 21.034C177.95 22.0035 178.025 22.8276 178.176 23.5063C178.337 24.1742 178.564 24.7236 178.855 25.1545C179.145 25.5747 179.501 25.8817 179.921 26.0756C180.341 26.2587 180.81 26.3503 181.327 26.3503Z" fill="black" fill-opacity="0.72"/>
<path fill-rule="evenodd" clip-rule="evenodd" d="M10.151 18.001C10.151 14.0312 13.3839 10.8013 17.3574 10.801C21.3312 10.8013 24.5643 14.0312 24.5643 18.001C24.5643 21.9708 21.3315 25.2005 17.3577 25.2005C13.3839 25.2005 10.151 21.9708 10.151 18.001ZM13.1179 18.001C13.1179 20.334 15.0198 22.2318 17.3577 22.2318C19.6956 22.2318 21.5974 20.334 21.5974 18.001C21.5974 15.6678 19.695 13.7697 17.3568 13.7697C15.0195 13.7697 13.1179 15.6678 13.1179 18.001Z" fill="#512FC9"/>
<path fill-rule="evenodd" clip-rule="evenodd" d="M34.4446 23.0848L30.9363 20.0957L31.0012 19.6901C31.0747 19.1418 31.0987 18.5695 31.0987 18.0042C31.0987 17.3018 31.062 16.5797 30.9363 15.9127L34.4446 12.928L34.5222 12.863C34.6154 12.7711 34.679 12.651 34.703 12.5224C34.7284 12.3923 34.7115 12.2581 34.6578 12.138C33.9417 9.97578 32.706 7.91817 31.1863 6.21237C30.9716 5.96798 30.6679 5.87888 30.3826 6.00329L25.9622 7.51252L25.595 7.22848C24.5886 6.4795 23.4845 5.87191 22.3136 5.4224L21.438 0.925656L21.4126 0.832368C21.369 0.705172 21.2917 0.593507 21.1889 0.507321C21.0861 0.421071 20.9618 0.364603 20.8295 0.344825L20.8279 0.34337C18.5369 -0.114457 16.1782 -0.114457 13.8874 0.34337C13.7386 0.365994 13.6006 0.433866 13.4917 0.537038C13.3828 0.641556 13.3085 0.775845 13.2786 0.924201L12.4032 5.42106L12.0059 5.57931C10.8323 6.05981 9.73609 6.70986 8.75298 7.51112L4.33376 6.00044L4.23629 5.96938C4.10716 5.93826 3.97206 5.94525 3.84645 5.98776C3.72073 6.03155 3.61014 6.10925 3.52723 6.21237C2.00557 7.91816 0.771914 9.97577 0.0568318 12.138C-0.0044688 12.2736 -0.0166338 12.4263 0.0225503 12.5705C0.0616246 12.7146 0.149441 12.8417 0.271201 12.928L3.77912 15.9141L3.71314 16.3197C3.63967 16.868 3.61706 17.4432 3.61706 18.0042C3.60735 18.7052 3.66144 19.4048 3.77913 20.0958L0.272774 23.0848L0.194836 23.1483C0.101047 23.2415 0.0377428 23.3603 0.0133397 23.4903C-0.0109446 23.6203 0.00474184 23.7546 0.0583959 23.8746C0.773478 26.0383 2.00713 28.0932 3.52868 29.796C3.74462 30.042 4.04888 30.1309 4.33376 30.008L8.75298 28.4959L9.07527 28.7559C10.0912 29.5219 11.212 30.1395 12.4032 30.5874L13.2786 35.0871L13.3026 35.1803C13.3466 35.3061 13.4242 35.4192 13.5273 35.5055C13.6303 35.5916 13.7547 35.6467 13.8874 35.668C15.0326 35.8771 16.1779 36 17.359 36C18.5389 36 19.6842 35.8771 20.8295 35.668C20.9779 35.6438 21.1158 35.5761 21.2245 35.4729C21.3333 35.3683 21.4079 35.2341 21.4381 35.0871L22.315 30.5874L22.7527 30.4108C23.9099 29.9218 24.9938 29.2774 25.9638 28.4959L30.3826 30.0081L30.4787 30.0406C30.7357 30.1098 30.9956 30.0151 31.1877 29.796C32.7102 28.0932 33.9431 26.0383 34.6578 23.8747C34.72 23.739 34.7313 23.585 34.6931 23.4408C34.6536 23.2967 34.566 23.1709 34.4446 23.0848ZM17.3576 28.534C11.5322 28.534 6.81011 23.8182 6.81011 18.0014C6.81011 12.1849 11.5288 7.46782 17.3568 7.46737C23.1834 7.46782 27.9054 12.1849 27.9054 18.0014C27.9054 23.8182 23.183 28.534 17.3576 28.534Z" fill="#512FC9"/>
<path d="M83.2667 5.33496H78.2006V29.3821H83.2667V5.33496Z" fill="#512FC9"/>
<path d="M61.6564 5.97637H42.7252V10.2824H49.4268V29.382H54.9534V10.2824H61.6564V5.97637Z" fill="#512FC9"/>
<path fill-rule="evenodd" clip-rule="evenodd" d="M117.632 12.9803C118.4 13.3802 119.067 13.9525 119.578 14.6521C120.123 15.3799 120.55 16.2715 120.861 17.3258C121.171 18.3816 121.325 19.5771 121.325 20.9169C121.325 22.169 121.15 23.3263 120.794 24.3862C120.471 25.3896 119.968 26.3266 119.309 27.1491C118.686 27.9178 117.905 28.5425 117.019 28.9791C116.1 29.4258 115.09 29.6518 114.069 29.6392C113.185 29.6392 112.443 29.5162 111.846 29.2703C111.251 29.0272 110.699 28.6909 110.21 28.2741V34.6674H105.143V12.723H108.281L108.435 12.7301C108.662 12.7414 108.881 12.8121 109.073 12.9322C109.294 13.0805 109.453 13.3039 109.524 13.5597L109.898 14.7807L110.148 14.5207C110.404 14.2677 110.673 14.0331 110.953 13.8155C112.162 12.8803 113.651 12.3814 115.18 12.4024C116.065 12.4026 116.881 12.5947 117.632 12.9803ZM115.172 24.8286C115.461 24.4272 115.686 23.9043 115.851 23.2614C116.013 22.6197 116.095 21.8382 116.095 20.9169C116.095 20.0378 116.029 19.3001 115.899 18.6995C115.769 18.1003 115.586 17.6156 115.352 17.2453C115.118 16.8765 114.836 16.6122 114.509 16.4497C114.183 16.2899 113.819 16.2094 113.413 16.2094C113.043 16.2094 112.709 16.2448 112.409 16.3154C112.11 16.3833 111.83 16.4822 111.576 16.6122C111.317 16.7422 111.077 16.9062 110.864 17.1012C110.631 17.3146 110.414 17.5421 110.21 17.7837V24.8526L110.375 25.0222C110.68 25.3303 111.048 25.5705 111.453 25.7274C111.899 25.8941 112.368 25.9761 112.858 25.9761C113.305 25.9803 113.745 25.8884 114.149 25.7034C114.542 25.5211 114.882 25.2285 115.172 24.8286Z" fill="#512FC9"/>
<path fill-rule="evenodd" clip-rule="evenodd" d="M72.9932 14.4754C72.3068 13.8126 71.4877 13.3025 70.5894 12.9802C69.6008 12.6283 68.5585 12.4545 67.509 12.4673C66.2111 12.4673 65.0473 12.6863 64.0177 13.1258C63.0291 13.537 62.1336 14.1419 61.3851 14.9078C60.6592 15.6597 60.0928 16.55 59.7185 17.5265C59.3287 18.5356 59.1324 19.6095 59.138 20.6921C59.138 22.1689 59.3626 23.4648 59.8174 24.5785C60.2693 25.692 60.8852 26.6247 61.6647 27.3737C62.4444 28.1241 63.3539 28.688 64.3948 29.0696C65.4343 29.4483 66.55 29.6391 67.7365 29.6391C68.3156 29.6391 68.9214 29.5981 69.5598 29.519C70.1968 29.4384 70.8338 29.2943 71.4722 29.0838C72.1105 28.8759 72.7319 28.5877 73.3364 28.2174C73.8548 27.9023 74.3434 27.5037 74.8024 27.0261L75.0285 26.7802L73.5582 24.9967C73.3491 24.707 73.0455 24.5614 72.6415 24.5614C72.3365 24.5614 72.0455 24.6321 71.7688 24.772C71.4891 24.9105 71.184 25.066 70.8521 25.2369C70.4863 25.4221 70.1064 25.5775 69.7152 25.7033C69.29 25.8432 68.7831 25.9125 68.1955 25.9125C67.0938 25.9125 66.1941 25.5988 65.4979 24.9727C64.8468 24.3877 64.4287 23.469 64.2423 22.2169L64.2069 21.9442H73.9819C74.2121 21.9442 74.3986 21.9173 74.5454 21.8651C74.6923 21.8114 74.818 21.7096 74.8985 21.5754C74.9959 21.403 75.0581 21.2107 75.0779 21.0129C75.1104 20.7769 75.1273 20.4731 75.1273 20.0971C75.1273 18.8974 74.9381 17.8233 74.5624 16.8765C74.215 15.9734 73.681 15.1552 72.9932 14.4754ZM64.255 19.0528C64.4301 18.0353 64.7903 17.2552 65.334 16.7154C65.8792 16.1741 66.6362 15.9042 67.6065 15.9042C68.1503 15.9042 68.6135 15.9959 68.9962 16.1783C69.355 16.3423 69.67 16.5867 69.92 16.892C70.1558 17.1888 70.3281 17.5308 70.427 17.8968C70.5301 18.2742 70.5823 18.6627 70.5809 19.0528H64.255Z" fill="#512FC9"/>
<path fill-rule="evenodd" clip-rule="evenodd" d="M97.6953 12.9802C98.5936 13.3025 99.4128 13.8112 100.099 14.4741C100.769 15.1283 101.293 15.9295 101.668 16.8765C102.043 17.8233 102.232 18.8974 102.232 20.0971C102.232 20.4731 102.218 20.7769 102.182 21.0129C102.163 21.2107 102.1 21.403 102.003 21.5754C101.923 21.7096 101.798 21.8114 101.651 21.8651C101.471 21.923 101.28 21.9498 101.088 21.9442H91.3115L91.3468 22.2169C91.5333 23.469 91.9513 24.3877 92.6038 24.9727C93.3001 25.6002 94.1998 25.9111 95.3014 25.9111C95.889 25.9111 96.396 25.8433 96.8211 25.7033C97.2109 25.5789 97.5909 25.4235 97.9567 25.2384C98.2899 25.066 98.595 24.9105 98.8732 24.7735C99.1501 24.6321 99.4424 24.5628 99.7461 24.5628C100.151 24.5628 100.455 24.707 100.663 24.9968L102.134 26.7802L101.907 27.0261C101.472 27.4853 100.979 27.8853 100.442 28.2174C99.8365 28.5877 99.2165 28.8774 98.5795 29.0851C97.9567 29.2915 97.3154 29.4356 96.6657 29.519C96.0274 29.5981 95.4215 29.6391 94.8438 29.6391C93.704 29.6476 92.5728 29.454 91.5007 29.0696C90.481 28.7021 89.5503 28.1255 88.7693 27.3737C87.9897 26.6248 87.3753 25.6948 86.9219 24.5798C86.47 23.4649 86.2426 22.169 86.2426 20.6921C86.2426 19.5771 86.4374 18.5228 86.8245 17.5265C87.1987 16.55 87.7651 15.6597 88.4911 14.9079C89.2396 14.1433 90.135 13.5371 91.1222 13.1259C92.1519 12.6863 93.3156 12.4658 94.6122 12.4658L94.6136 12.4673C95.663 12.4545 96.7067 12.6283 97.6953 12.9802ZM92.4399 16.7154C91.8948 17.2566 91.5347 18.0353 91.3609 19.0528L97.6869 19.0528C97.6869 18.6556 97.636 18.2727 97.5329 17.8968C97.4284 17.5223 97.2603 17.186 97.0259 16.892C96.79 16.5967 96.4835 16.3592 96.1008 16.1769C95.7195 15.996 95.2576 15.9056 94.711 15.9056C93.7408 15.9056 92.9837 16.1755 92.4399 16.7154Z" fill="#512FC9"/>
<path fill-rule="evenodd" clip-rule="evenodd" d="M137.83 14.7639C137.052 14.012 136.124 13.4326 135.108 13.061C134.051 12.6652 132.88 12.4674 131.594 12.4674C130.297 12.4674 129.116 12.6652 128.054 13.061C127.03 13.4326 126.095 14.0134 125.307 14.7639C124.527 15.5212 123.918 16.4399 123.526 17.4546C123.106 18.5088 122.897 19.6959 122.897 21.013C122.897 22.34 123.106 23.537 123.526 24.604C123.945 25.6681 124.54 26.5725 125.307 27.3188C126.095 28.0749 127.03 28.66 128.054 29.0359C129.117 29.4385 130.297 29.6392 131.594 29.6392C132.88 29.6392 134.052 29.4385 135.108 29.0359C136.125 28.66 137.053 28.0749 137.83 27.3188C138.587 26.5725 139.176 25.6681 139.595 24.604C140.016 23.5384 140.225 22.34 140.225 21.013C140.225 19.6959 140.016 18.5088 139.595 17.4546C139.204 16.4427 138.603 15.5256 137.83 14.7639ZM134.168 24.7312C133.618 25.5396 132.758 25.9451 131.594 25.9451C130.395 25.9451 129.517 25.541 128.962 24.7312C128.405 23.9228 128.129 22.6948 128.129 21.0456C128.129 19.3963 128.405 18.1683 128.962 17.3669C129.518 16.5642 130.395 16.1615 131.594 16.1615C132.758 16.1615 133.618 16.5628 134.168 17.3669C134.719 18.1683 134.993 19.3963 134.993 21.0456C134.993 22.6948 134.719 23.9228 134.168 24.7312Z" fill="#512FC9"/>
<path d="M165.377 25.5042C165.47 25.5734 165.565 25.6821 165.663 25.832L167.2 28.1935L166.952 28.3687C166.348 28.77 165.689 29.0767 164.994 29.2774C164.175 29.5176 163.332 29.6392 162.459 29.6392C161.652 29.6392 160.942 29.5233 160.325 29.2944C159.743 29.0838 159.212 28.7503 158.773 28.3135C158.346 27.8783 158.018 27.3554 157.816 26.7803C157.59 26.1344 157.48 25.4547 157.489 24.7721V16.1614H156.05L155.922 16.1544C155.721 16.1332 155.531 16.0498 155.38 15.9127C155.195 15.7474 155.103 15.5028 155.103 15.1807V13.2389L157.799 12.7245L158.798 8.65878L158.835 8.53572C158.991 8.10471 159.349 7.88848 159.908 7.88848H162.558V12.7556H166.678V16.16H162.558V24.4343L162.563 24.5969C162.586 24.9091 162.681 25.1749 162.844 25.391C163.034 25.6412 163.309 25.7684 163.668 25.7684C163.943 25.774 164.217 25.7104 164.462 25.5833C164.555 25.5352 164.641 25.4928 164.724 25.4547C164.813 25.4151 164.912 25.3967 165.01 25.3981C165.141 25.3925 165.269 25.4292 165.377 25.5042Z" fill="#512FC9"/>
<path d="M117.345 12.4023L117.346 12.4024L117.347 12.4023H117.345Z" fill="#512FC9"/>
<path d="M147.969 15.1482C148.484 14.4034 149.121 13.7533 149.854 13.222C150.626 12.6765 151.472 12.4023 152.387 12.4023C153.161 12.4023 153.781 12.5847 154.252 12.9493L153.599 16.6123L153.568 16.7381C153.533 16.8766 153.451 16.9995 153.336 17.0858C153.206 17.1776 153.031 17.2228 152.814 17.2228C152.627 17.2228 152.41 17.1974 152.16 17.1493C151.91 17.1013 151.594 17.0772 151.211 17.0772C149.882 17.0772 148.835 17.7725 148.073 19.1645V29.3821H143.005V12.7245H146.011L146.191 12.7288C146.342 12.733 146.494 12.7528 146.64 12.7882C146.794 12.8249 146.94 12.8927 147.066 12.9888C147.183 13.0848 147.273 13.2093 147.327 13.3506C147.395 13.5287 147.447 13.711 147.482 13.8975L147.76 15.4534L147.969 15.1482Z" fill="#512FC9"/>
</svg>
