<svg width="56" height="50" viewBox="0 0 56 50" fill="none" xmlns="http://www.w3.org/2000/svg">
<g clip-path="url(#clip0_9699_49518)">
<path d="M54.9581 14.7453L30.3754 0.590703C29.0075 -0.196901 26.7968 -0.196901 25.438 0.590703L1.01449 14.7453C-0.344308 15.5329 -0.337326 16.8101 1.03055 17.5977L25.6133 31.7522C26.9812 32.5398 29.1919 32.5398 30.5514 31.7522L54.9749 17.597C56.3337 16.8094 56.3267 15.5329 54.9581 14.7446" fill="#4C36BC"/>
<path d="M25.2642 32.542C26.0789 33.0111 27.1013 33.226 28.0855 33.226C29.0693 33.226 30.0906 33.0112 30.902 32.5411L30.9022 32.541L50.7187 21.0558L54.9581 23.4967C56.3267 24.285 56.3336 25.5615 54.9748 26.3491L30.5514 40.5044C29.1919 41.292 26.9811 41.292 25.6132 40.5044L1.03053 26.3498C-0.337338 25.5622 -0.344293 24.285 1.01451 23.4974L5.2714 21.0303L25.2642 32.542Z" fill="#4C36BC" fill-opacity="0.55"/>
<path d="M25.2642 41.3868C26.0789 41.8559 27.1013 42.0708 28.0855 42.0708C29.0693 42.0708 30.0906 41.8559 30.902 41.3858L30.9022 41.3857L50.7187 29.9005L54.9581 32.3414C56.3267 33.1297 56.3336 34.4062 54.9748 35.1938L30.5514 49.3491C29.1919 50.1367 26.9811 50.1367 25.6132 49.3491L1.03053 35.1945C-0.337338 34.4069 -0.344293 33.1297 1.01451 32.3421L5.2714 29.875L25.2642 41.3868Z" fill="#4C36BC" fill-opacity="0.2"/>
<path d="M32.8557 13.3412C31.6035 12.6194 29.8777 12.1732 27.9775 12.1732C24.1764 12.1732 21.096 13.9615 21.1084 16.1574C21.115 17.2562 21.8936 18.2526 23.1457 18.9744C24.3979 19.6962 26.1228 20.1425 28.023 20.1425C31.8241 20.1425 34.9046 18.3558 34.8922 16.1574C34.8864 15.0586 34.1078 14.063 32.8557 13.3412ZM25.1409 17.8121C24.4054 17.3881 23.9483 16.8033 23.9442 16.159C23.9376 14.8681 25.7501 13.818 27.9842 13.818C29.1024 13.818 30.1191 14.0811 30.8555 14.506C31.5911 14.9299 32.049 15.5148 32.0523 16.159C32.0597 17.4491 30.2464 18.5001 28.0115 18.5001C26.8924 18.5001 25.8765 18.237 25.1401 17.8121M20.8877 20.2785C19.057 19.2235 17.9205 17.7676 17.9114 16.1582C17.8933 12.9403 22.3911 10.3287 27.9643 10.3287C30.7513 10.3287 33.2771 10.982 35.1087 12.037C36.9395 13.0921 38.0759 14.5489 38.085 16.1582C38.1032 19.3769 33.6011 21.9861 28.0313 21.9869C25.2451 21.9869 22.7184 21.3336 20.8869 20.2785M41.1497 9.61105C40.9472 9.49392 40.6753 9.45513 40.4183 9.51864L36.1947 10.3542L35.8435 10.1975C34.8789 9.78341 33.821 9.44608 32.6994 9.19775L31.8473 6.70988L31.8241 6.65791C31.7886 6.60017 31.7324 6.54738 31.658 6.50448C31.6423 6.49541 31.6266 6.48716 31.6093 6.47891C31.5109 6.43024 31.3902 6.39972 31.2646 6.38817C29.0718 6.13493 26.8163 6.13493 24.6269 6.38817C24.4839 6.40055 24.3533 6.43766 24.2491 6.49541C24.145 6.55315 24.0748 6.62739 24.0475 6.70988L23.2235 9.19775L22.8433 9.28605C21.7225 9.55249 20.6769 9.9121 19.7389 10.3551L15.508 9.51864L15.4137 9.50131C15.2898 9.48397 15.1608 9.48814 15.0418 9.51119C14.9228 9.53598 14.8161 9.57805 14.7368 9.63494C13.2871 10.5778 12.1126 11.7161 11.4349 12.9122C11.3779 12.9873 11.3654 13.0723 11.4043 13.1507C11.4324 13.2108 11.4886 13.267 11.5655 13.3107C11.5894 13.3247 11.6151 13.3371 11.6432 13.3487L15.0063 15.0001L14.9443 15.2244C14.8749 15.528 14.8558 15.8456 14.8566 16.1558C14.8501 16.5434 14.9038 16.9303 15.0195 17.3131L11.6745 18.9686L11.6002 19.0033C11.5109 19.0552 11.4506 19.1212 11.4283 19.193C11.4051 19.2647 11.4208 19.339 11.4729 19.4058C12.163 20.6035 13.3499 21.7411 14.8079 22.6823C14.8203 22.6905 14.8327 22.698 14.8459 22.7054C15.0509 22.8234 15.3236 22.8638 15.579 22.7994L19.8008 21.963L20.1091 22.1065C21.0819 22.5305 22.1572 22.8728 23.2978 23.1195L24.15 25.6099L24.1731 25.6618C24.2086 25.7187 24.2648 25.7723 24.34 25.8152C24.3558 25.8243 24.3723 25.8334 24.3905 25.8416C24.4888 25.8903 24.6087 25.9192 24.7351 25.9315C25.8303 26.0479 26.9279 26.1147 28.0569 26.1147C29.1851 26.1147 30.2794 26.0462 31.3754 25.9315C31.5159 25.9184 31.6489 25.8812 31.7531 25.8243C31.858 25.7657 31.9283 25.6915 31.9572 25.6099L32.7812 23.1203L33.1995 23.0221C34.3053 22.7516 35.3401 22.3952 36.2658 21.963L40.4967 22.7994L40.5885 22.8176C40.834 22.8563 41.0819 22.8035 41.2654 22.6831C42.7152 21.7402 43.8896 20.6028 44.5648 19.4067C44.6236 19.3308 44.6343 19.2458 44.5971 19.1666C44.5682 19.1064 44.512 19.0511 44.4359 19.0074C44.412 18.9934 44.3864 18.981 44.3582 18.9695H44.3558L40.9902 17.3163L41.0514 17.0928C41.1208 16.7893 41.1423 16.4725 41.1406 16.1599C41.1382 15.7714 41.1018 15.3721 40.9778 15.0026L44.3252 13.3503L44.4004 13.3148C44.4896 13.2636 44.5492 13.1977 44.5723 13.1267C44.5954 13.055 44.5797 12.9807 44.5277 12.9139C43.8367 11.717 42.649 10.5786 41.1894 9.63494C41.177 9.62672 41.1638 9.61844 41.1505 9.61105" fill="white"/>
</g>
<defs>
<clipPath id="clip0_9699_49518">
<rect width="56" height="50" fill="white"/>
</clipPath>
</defs>
</svg>
