<svg width="50" height="22" viewBox="0 0 50 22" fill="none" xmlns="http://www.w3.org/2000/svg">
<path d="M0 4C0 1.79086 1.79086 0 4 0H46C48.2091 0 50 1.79086 50 4V18C50 20.2091 48.2091 22 46 22H4C1.79086 22 0 20.2091 0 18V4Z" fill="#512FC9" fill-opacity="0.1"/>
<path d="M17.541 5.92V16H16.708C16.582 16 16.4747 15.979 16.386 15.937C16.2973 15.8903 16.2133 15.8157 16.134 15.713L10.597 8.601C10.611 8.73633 10.6203 8.87167 10.625 9.007C10.6343 9.13767 10.639 9.259 10.639 9.371V16H9.197V5.92H10.051C10.121 5.92 10.1793 5.92467 10.226 5.934C10.2773 5.93867 10.324 5.95033 10.366 5.969C10.408 5.98767 10.4477 6.01567 10.485 6.053C10.5223 6.09033 10.562 6.137 10.604 6.193L16.148 13.312C16.134 13.1673 16.1223 13.025 16.113 12.885C16.1083 12.745 16.106 12.6143 16.106 12.493V5.92H17.541ZM26.3361 14.677L26.3291 16H20.0431V5.92H26.3291V7.243H21.6881V10.281H25.3981V11.562H21.6881V14.677H26.3361ZM41.4605 5.92L38.3245 16H36.8475L34.4815 8.762C34.4535 8.68267 34.4255 8.59633 34.3975 8.503C34.3742 8.40967 34.3508 8.30933 34.3275 8.202C34.3042 8.30933 34.2785 8.40967 34.2505 8.503C34.2272 8.59633 34.2015 8.68267 34.1735 8.762L31.7865 16H30.3095L27.1735 5.92H28.5455C28.6855 5.92 28.8022 5.955 28.8955 6.025C28.9935 6.09033 29.0588 6.18133 29.0915 6.298L30.9815 12.759C31.0188 12.899 31.0538 13.0507 31.0865 13.214C31.1192 13.3773 31.1518 13.5477 31.1845 13.725C31.2172 13.5477 31.2522 13.3773 31.2895 13.214C31.3315 13.046 31.3758 12.8943 31.4225 12.759L33.5855 6.298C33.6182 6.20467 33.6835 6.11833 33.7815 6.039C33.8795 5.95967 33.9962 5.92 34.1315 5.92H34.6075C34.7522 5.92 34.8688 5.95733 34.9575 6.032C35.0462 6.102 35.1138 6.19067 35.1605 6.298L37.3165 12.759C37.3632 12.8943 37.4052 13.0413 37.4425 13.2C37.4845 13.354 37.5218 13.5173 37.5545 13.69C37.5872 13.5173 37.6175 13.354 37.6455 13.2C37.6782 13.0413 37.7132 12.8943 37.7505 12.759L39.6335 6.298C39.6615 6.19533 39.7245 6.10667 39.8225 6.032C39.9252 5.95733 40.0442 5.92 40.1795 5.92H41.4605Z" fill="#4E2CC8"/>
</svg>
